Coordinates
version=1
nRows=16
nColumns=36
inDegrees=yes

Units are S.I. units (second, meters, Newtons, ...)
If the header above contains a line with 'inDegrees', this indicates whether rotational values are in degrees (yes) or radians (no).

endheader
time	pelvis_tilt	pelvis_list	pelvis_rotation	pelvis_tx	pelvis_ty	pelvis_tz	hip_flexion_r	hip_adduction_r	hip_rotation_r	knee_angle_r	knee_angle_r_beta	ankle_angle_r	subtalar_angle_r	mtp_angle_r	hip_flexion_l	hip_adduction_l	hip_rotation_l	knee_angle_l	knee_angle_l_beta	ankle_angle_l	subtalar_angle_l	mtp_angle_l	lumbar_extension	lumbar_bending	lumbar_rotation	arm_flex_r	arm_add_r	arm_rot_r	elbow_flex_r	pro_sup_r	arm_flex_l	arm_add_l	arm_rot_l	elbow_flex_l	pro_sup_l
      1.71666670	     10.06678913	      0.57634519	     -5.59466647	      0.09452028	      1.27383140	      0.01247254	    -11.53850443	      0.04715491	      6.46181790	      5.39795862	      0.09421215	      8.60759256	     -8.69665369	     -7.49999910	    -12.77987905	     -0.59498351	      5.87069445	      4.16592731	      0.07270915	      1.83039250	    -16.48691368	     -7.49999910	    -22.17250228	      0.06932383	     -0.91710786	      7.53351311	     -3.00462608	      5.07161528	     27.61080941	     97.73127554	      6.51636155	     -2.37061439	      1.52840811	     29.87361291	     96.32952739
      1.73333330	     10.25200329	      0.53226211	     -5.48338503	      0.09615142	      1.27163653	      0.01268737	    -12.00271455	      0.11918845	      6.79738017	      5.05185919	      0.08817158	      8.97213544	     -8.57791934	     -7.49999918	    -13.12091632	     -0.66332410	      5.91550423	      4.11414504	      0.07180538	      2.57835397	    -15.84122847	     -7.49999918	    -21.89129863	      0.07685104	     -0.86965167	      7.35384882	     -2.98718552	      5.02187674	     27.27382185	     96.10778505	      6.45491222	     -2.33112530	      1.57463820	     29.67725035	     94.71784274
      1.75000000	     10.51885201	      0.50939237	     -5.34821243	      0.09714430	      1.27250099	      0.01193912	    -12.56687467	      0.14166229	      6.82193652	      4.72952289	      0.08254575	      9.23029763	     -8.35315797	     -7.49999930	    -13.53805598	     -0.68464769	      6.12506748	      4.00168598	      0.06984260	      2.81589626	    -15.74148486	     -7.49999930	    -21.81165476	      0.10494218	     -1.06525210	      7.17893897	     -3.07143281	      5.53125813	     27.30685410	     94.82419438	      6.26947452	     -2.44735478	      2.11075253	     29.76670040	     93.30739556
      1.76666670	     10.69892592	      0.45966131	     -5.32876240	      0.09630782	      1.27590611	      0.01255061	    -12.98837119	      0.17225390	      6.85723696	      4.47104835	      0.07803451	      9.41774230	     -8.27174594	     -7.49999944	    -13.86643536	     -0.70826318	      6.22800686	      3.88013481	      0.06772113	      2.97809221	    -15.59285305	     -7.49999944	    -21.69778442	      0.12735890	     -1.06694336	      7.15315924	     -3.21039419	      6.19709225	     27.12254807	     94.89182350	      6.20420611	     -2.54523739	      2.55649535	     29.73295918	     93.04302783
      1.78333330	     10.94987814	      0.41857488	     -5.27828548	      0.09675793	      1.27562196	      0.01344074	    -13.48291689	      0.20808128	      6.78808677	      4.23243613	      0.07386995	      9.33960411	     -8.28384383	     -7.49999953	    -14.22429157	     -0.73424090	      6.29004986	      3.90367339	      0.06813195	      3.00585596	    -15.57450326	     -7.49999953	    -21.67362521	      0.10212739	     -1.11523556	      7.09858642	     -3.12004081	      5.76995926	     26.90372087	     95.04984515	      6.15065328	     -2.48878418	      2.01333242	     29.56405466	     93.13181665
      1.80000000	     11.12778118	      0.38902334	     -5.27170006	      0.09772452	      1.27626178	      0.01408137	    -13.84204139	      0.24848308	      6.81304153	      4.01063775	      0.06999883	      9.20976300	     -8.35636666	     -7.49999960	    -14.46419433	     -0.75740216	      6.30441626	      3.92510003	      0.06850592	      3.00515990	    -15.66192120	     -7.49999960	    -21.57963308	      0.06340456	     -1.08346934	      6.98565716	     -3.07948109	      5.36140552	     26.75650128	     96.17775369	      6.12298548	     -2.47067374	      1.51848023	     29.41053129	     94.06713932
      1.81666670	     11.44624114	      0.41782991	     -5.20645876	      0.09902645	      1.27855847	      0.01497925	    -14.42061752	      0.20783677	      6.59535654	      3.76775899	      0.06575980	      9.07939226	     -8.29103714	     -7.49999967	    -14.86051844	     -0.75327560	      6.36229558	      3.92288149	      0.06846720	      2.80765401	    -15.69286789	     -7.49999967	    -21.60991741	     -0.05944656	     -1.17549793	      6.93362078	     -3.02703005	      5.42699780	     26.46141344	     96.17267017	      6.04807151	     -2.55307148	      1.44867675	     29.21122654	     93.98554790
      1.83333330	     11.81008940	      0.39474843	     -5.17581102	      0.10162632	      1.27583646	      0.01510240	    -15.04672354	      0.18717631	      6.28016861	      3.62770728	      0.06331544	      8.96693276	     -8.05263927	     -7.49999969	    -15.33076681	     -0.77427816	      6.16875298	      4.00212836	      0.06985032	      2.73256177	    -15.64066002	     -7.49999969	    -21.69013221	     -0.11036428	     -1.24574695	      6.79458090	     -2.93628210	      5.23618000	     26.33856123	     94.56479152	      5.95756969	     -2.56837658	      1.32088132	     28.96382868	     92.30733018
      1.85000000	     12.26137140	      0.39288532	     -5.23138920	      0.09933037	      1.27802268	      0.01549571	    -15.72808081	      0.11970747	      6.19673916	      3.41517874	      0.05960611	      8.69913825	     -8.35827851	     -7.49999974	    -15.86464228	     -0.75412143	      6.01000329	      4.04607920	      0.07061740	      2.50160573	    -15.70163942	     -7.49999974	    -22.00747969	     -0.22698922	     -1.17420094	      6.75130782	     -3.07409350	      6.23007984	     26.37891411	     92.23920023	      5.98009928	     -2.73712025	      2.13675126	     28.93445617	     89.66503175
      1.86666670	     12.46626298	      0.40795351	     -5.11638845	      0.10027409	      1.27608933	      0.01615672	    -16.13815976	      0.11123737	      5.89871228	      3.22748205	      0.05633019	      8.49693326	     -8.40403262	     -7.49999980	    -16.06981276	     -0.77329591	      6.09404911	      4.20879076	      0.07345726	      2.21970875	    -15.87429068	     -7.49999980	    -21.95008735	     -0.28462723	     -1.40917683	      6.66493470	     -2.87131647	      4.86798016	     26.16340289	     97.38667759	      5.90781272	     -2.73646487	      0.93528346	     28.62080981	     94.39968990
      1.88333330	     12.72318663	      0.38710283	     -5.07373209	      0.10175299	      1.27509522	      0.01661212	    -16.59061176	      0.12538440	      5.73621118	      3.02741430	      0.05283835	      8.41089388	     -8.49483545	     -7.49999982	    -16.38552745	     -0.80728575	      6.02393467	      4.32014588	      0.07540077	      2.09888470	    -15.91438884	     -7.49999982	    -22.00974397	     -0.32190669	     -1.43494404	      6.57172077	     -2.88259776	      5.05720097	     26.02189868	     96.89687053	      5.87740869	     -2.80314424	      0.94711061	     28.37915007	     93.80664426
      1.90000000	     12.98447360	      0.30754924	     -5.08163364	      0.10248926	      1.27052371	      0.01643592	    -17.00583499	      0.18543912	      5.67293251	      2.88077217	      0.05027896	      8.45135552	     -8.57787726	     -7.49999982	    -16.75595820	     -0.88970659	      5.92003054	      4.35065907	      0.07593333	      2.18998291	    -15.79758378	     -7.49999982	    -22.01079992	     -0.31115944	     -1.53051630	      6.51173535	     -2.90657060	      5.32821572	     25.94703750	     95.93944963	      5.74343011	     -2.88201195	      1.03292746	     28.19125688	     92.84292719
      1.91666670	     13.05249977	      0.27312698	     -5.13407304	      0.10192776	      1.27727073	      0.01767442	    -17.10456146	      0.22446403	      5.53082439	      2.88364529	      0.05032910	      8.44515594	     -8.64757365	     -7.49999982	    -16.84951495	     -0.93579809	      5.87217212	      4.44426462	      0.07756705	      2.09956302	    -15.78781886	     -7.49999982	    -21.92872677	     -0.34620997	     -1.48648955	      6.45271161	     -2.93561876	      5.31995736	     25.92270653	     95.94588520	      5.56127981	     -2.96200422	      1.01123169	     28.10516598	     92.84367175
      1.93333330	     13.15029664	      0.21727727	     -5.17359288	      0.10403891	      1.28161194	      0.01796829	    -17.33317424	      0.29786258	      5.42550326	      2.91389262	      0.05085702	      8.39958766	     -8.67817665	     -7.49999982	    -16.98755202	     -0.98423024	      5.91898490	      4.50980753	      0.07871099	      2.00002903	    -15.69183650	     -7.49999982	    -21.82119737	     -0.33602311	     -1.47660197	      6.32063151	     -2.92264510	      5.31802198	     25.86000224	     95.95553716	      5.33648011	     -2.99913546	      0.98425158	     27.96912614	     92.84262188
      1.95000000	     13.72921381	      0.16793084	     -5.05511927	      0.10489882	      1.27979948	      0.01871162	    -18.23057163	      0.39485414	      5.36062555	      2.53575980	      0.04425736	      8.38085978	     -8.52425112	     -7.49999984	    -17.73922879	     -1.04010494	      5.95074924	      4.24904655	      0.07415985	      2.31713760	    -14.94880096	     -7.49999984	    -22.17772304	     -0.34981076	     -1.78238557	      6.53649702	     -2.86799591	      6.20518458	     25.14460648	     95.05598768	      5.35626269	     -3.03923073	      0.90880868	     27.13875181	     90.88708119
      1.96666670	     13.99460671	      0.19289165	     -4.96317467	      0.10630632	      1.28054175	      0.01825668	    -18.69246857	      0.39740585	      5.34394291	      2.24379417	      0.03916160	      8.68514184	     -7.91878860	     -7.49999985	    -18.04462999	     -1.05052340	      5.96871027	      4.17394624	      0.07284910	      2.65696127	    -14.11490458	     -7.49999985	    -22.29518348	     -0.39518689	     -1.83049813	      6.43458171	     -2.72232167	      5.28192645	     24.95180019	     96.38732339	      5.26230194	     -3.02290406	      0.45546577	     26.83655435	     92.04228804
